<?xml version="1.0" standalone="no"?>
<!DOCTYPE svg PUBLIC "-//W3C//DTD SVG 20010904//EN"
 "http://www.w3.org/TR/2001/REC-SVG-20010904/DTD/svg10.dtd">
<svg version="1.0" xmlns="http://www.w3.org/2000/svg"
 width="860.000000pt" height="288.000000pt" viewBox="0 0 860.000000 288.000000"
 preserveAspectRatio="xMidYMid meet">

<g transform="translate(0.000000,288.000000) scale(0.100000,-0.100000)"
fill="#000000" stroke="none">
<path d="M1500 2419 c0 -35 3 -49 9 -40 9 14 7 79 -3 89 -3 3 -6 -19 -6 -49z"/>
<path d="M1498 2323 c6 -2 18 -2 25 0 6 3 1 5 -13 5 -14 0 -19 -2 -12 -5z"/>
<path d="M1442 2291 c-8 -5 7 -6 37 -3 56 5 101 -3 101 -19 0 -6 -30 -9 -78
-8 -83 2 -140 -14 -94 -27 19 -6 22 -13 22 -59 l0 -52 -86 -17 c-316 -62 -568
-280 -670 -578 -12 -37 -26 -88 -29 -112 l-7 -43 -51 -7 c-29 -3 -86 -6 -127
-6 -102 0 -120 -6 -119 -39 0 -23 1 -24 9 -6 6 15 9 16 9 4 1 -11 12 -16 41
-17 35 -2 40 1 41 21 1 17 2 18 6 5 3 -12 14 -18 34 -18 23 0 29 4 29 21 0 11
4 17 10 14 5 -3 10 -14 10 -24 0 -14 7 -16 35 -13 26 3 35 9 35 23 0 10 5 19
10 19 6 0 10 -7 10 -15 0 -11 12 -15 44 -15 36 0 45 4 51 23 8 21 8 21 12 -5
4 -27 7 -28 59 -28 51 0 54 1 54 25 0 16 6 25 15 25 8 0 15 -9 15 -20 0 -18 7
-20 55 -20 48 0 55 2 55 20 0 11 7 20 15 20 8 0 15 -9 15 -20 0 -18 7 -20 60
-20 57 0 60 1 60 25 l0 25 -121 0 -121 0 6 48 c30 212 142 423 291 550 53 46
152 98 205 109 l32 6 -26 -41 c-35 -55 -71 -150 -96 -247 -17 -68 -29 -147
-56 -372 l-5 -43 -52 -1 c-29 0 -46 -3 -39 -6 6 -2 12 -13 12 -24 0 -17 8 -19
65 -19 58 0 65 2 65 20 0 11 7 20 15 20 9 0 15 -9 15 -25 0 -23 4 -25 45 -25
38 0 45 3 45 20 0 13 7 20 20 20 13 0 20 -7 20 -20 0 -18 7 -20 65 -20 58 0
65 2 65 20 0 11 7 20 15 20 8 0 15 -9 15 -20 0 -17 7 -20 45 -20 38 0 45 3 45
20 0 12 7 20 16 20 9 0 18 -9 21 -20 5 -17 14 -20 64 -20 52 0 59 2 59 20 0
11 7 20 15 20 8 0 15 -9 15 -20 0 -18 7 -20 65 -20 58 0 65 2 65 20 0 11 7 20
15 20 8 0 15 -9 15 -20 0 -18 7 -20 55 -20 48 0 55 2 55 20 0 11 7 20 15 20 9
0 15 -9 15 -25 0 -23 3 -25 50 -25 43 0 50 3 50 20 0 11 7 20 15 20 8 0 15 -7
15 -15 0 -11 11 -15 40 -15 29 0 40 4 40 15 0 8 5 15 10 15 6 0 10 -9 10 -20
0 -14 7 -20 24 -20 13 0 31 -3 39 -6 11 -4 17 3 20 23 4 27 5 27 12 6 9 -27
55 -33 55 -8 0 8 5 15 10 15 6 0 10 -9 10 -20 0 -30 40 -27 41 3 0 21 1 21 10
-3 10 -24 11 -24 25 -6 8 11 14 23 14 27 0 12 -43 19 -120 19 -41 0 -98 3
-125 6 l-51 6 -22 87 c-44 169 -126 307 -255 427 -118 110 -268 188 -421 219
-44 9 -83 18 -88 21 -4 3 -8 27 -8 53 0 42 3 50 23 55 21 6 21 7 3 17 -10 6
-27 20 -37 30 -20 20 -111 27 -137 10z m15 -148 c-2 -16 -4 -3 -4 27 0 30 2
43 4 28 2 -16 2 -40 0 -55z m83 27 c0 -47 -2 -50 -25 -50 -23 0 -25 3 -25 50
0 47 2 50 25 50 23 0 25 -3 25 -50z m40 -12 c0 -21 -4 -38 -10 -38 -5 0 -10
24 -10 53 0 37 3 48 10 37 5 -8 10 -32 10 -52z m-20 -94 c83 -70 150 -308 174
-616 l5 -68 -230 0 -231 0 7 93 c15 198 62 414 111 507 28 54 41 71 74 93 34
23 53 21 90 -9z m175 -32 c48 -25 95 -61 151 -117 70 -70 90 -98 138 -196 52
-106 84 -203 100 -306 l6 -43 -97 0 c-54 0 -135 3 -180 7 l-83 6 0 46 c-1 184
-78 507 -146 606 -13 20 -24 38 -24 41 0 12 69 -10 135 -44z m-535 -9 c-45
-29 -164 -159 -198 -216 -55 -91 -101 -209 -124 -314 -11 -54 -22 -104 -24
-110 -2 -9 -30 -13 -95 -13 l-91 0 7 43 c10 58 59 189 91 246 88 151 213 267
374 348 68 34 102 43 60 16z m730 -45 c188 -105 333 -290 394 -502 14 -48 26
-92 26 -97 0 -5 -42 -9 -93 -9 l-94 0 -13 73 c-16 89 -52 202 -91 285 -40 83
-136 209 -196 257 -26 21 -52 43 -58 48 -16 14 64 -21 125 -55z"/>
<path d="M3430 1715 l0 -95 49 0 c72 0 104 30 104 95 0 65 -32 95 -104 95
l-49 0 0 -95z m112 58 c12 -11 18 -30 18 -58 0 -53 -24 -78 -72 -73 l-33 3 -3
73 -3 72 37 0 c21 0 46 -7 56 -17z"/>
<path d="M3838 1715 c20 -52 42 -95 48 -95 13 0 88 179 79 188 -9 10 -21 -11
-44 -78 -13 -36 -27 -69 -31 -73 -4 -5 -20 28 -35 72 -16 45 -34 81 -41 81 -8
0 0 -33 24 -95z"/>
<path d="M3990 1801 c0 -6 5 -13 10 -16 6 -3 10 1 10 9 0 9 -4 16 -10 16 -5 0
-10 -4 -10 -9z"/>
<path d="M4180 1715 c0 -57 4 -95 10 -95 6 0 10 19 10 43 0 50 18 81 46 75 16
-3 20 -13 22 -61 4 -75 22 -74 22 2 0 69 -14 86 -60 76 -28 -6 -30 -5 -30 24
0 17 -4 31 -10 31 -6 0 -10 -38 -10 -95z"/>
<path d="M5040 1715 c0 -100 17 -133 22 -44 3 55 21 78 52 66 12 -5 16 -20 16
-62 0 -30 5 -55 10 -55 6 0 10 27 10 60 0 55 -2 61 -26 72 -20 9 -30 9 -45 0
-17 -11 -19 -9 -19 23 0 19 -4 35 -10 35 -6 0 -10 -38 -10 -95z"/>
<path d="M5260 1715 c0 -78 3 -95 15 -95 10 0 15 10 15 34 0 18 7 39 15 46 13
11 18 10 31 -9 32 -46 63 -76 69 -69 4 4 -10 30 -30 58 l-38 51 39 40 c55 56
20 49 -38 -8 l-48 -47 0 47 c0 35 -4 47 -15 47 -12 0 -15 -17 -15 -95z"/>
<path d="M5910 1780 c0 -27 -2 -29 -28 -24 -42 8 -67 -27 -63 -88 2 -30 30
-48 72 -46 l39 1 0 94 c0 55 -4 93 -10 93 -5 0 -10 -13 -10 -30z m-4 -64 c3
-13 4 -35 2 -47 -2 -19 -9 -24 -33 -24 -27 0 -30 4 -33 33 -5 47 3 62 32 62
19 0 27 -7 32 -24z"/>
<path d="M4975 1785 c-5 -11 -13 -23 -19 -27 -8 -6 -7 -10 1 -16 6 -4 13 -32
15 -62 3 -50 5 -55 28 -58 23 -2 24 -1 8 11 -21 17 -25 102 -5 110 9 4 9 8 1
14 -7 4 -14 17 -16 28 l-5 20 -8 -20z"/>
<path d="M3620 1690 c0 -81 18 -95 22 -17 2 43 7 54 26 62 12 5 22 13 22 17 0
12 -25 9 -38 -4 -9 -9 -12 -9 -12 0 0 7 -4 12 -10 12 -6 0 -10 -30 -10 -70z"/>
<path d="M3990 1690 c0 -40 4 -70 10 -70 6 0 10 30 10 70 0 40 -4 70 -10 70
-6 0 -10 -30 -10 -70z"/>
<path d="M4056 1744 c-22 -22 -5 -51 37 -62 17 -5 33 -15 35 -24 4 -22 -32
-29 -58 -11 -26 19 -37 11 -15 -11 19 -19 66 -21 83 -4 24 24 13 49 -28 65
-22 9 -40 22 -40 30 0 16 42 17 58 1 6 -6 14 -9 17 -6 11 10 -26 38 -50 38
-13 0 -31 -7 -39 -16z"/>
<path d="M4320 1752 c0 -32 35 -132 46 -132 6 0 18 23 24 51 14 56 24 52 35
-13 10 -54 29 -47 49 20 10 31 21 63 23 70 3 6 0 12 -6 12 -5 0 -16 -19 -22
-42 -18 -64 -25 -65 -39 -8 -7 28 -17 49 -23 47 -5 -1 -17 -25 -25 -53 l-15
-49 -16 47 c-16 47 -31 71 -31 50z"/>
<path d="M4534 1746 c-10 -8 -16 -18 -12 -22 4 -4 14 -1 22 5 20 17 60 10 64
-11 3 -14 -3 -18 -27 -18 -42 0 -75 -33 -61 -60 9 -16 20 -19 63 -17 l52 2 -3
55 c-2 30 -9 61 -14 68 -14 16 -60 15 -84 -2z m76 -76 c0 -23 -32 -43 -55 -34
-23 9 -14 37 15 45 38 11 40 10 40 -11z"/>
<path d="M4670 1690 c0 -81 17 -95 22 -19 3 55 21 78 52 66 12 -5 16 -20 16
-62 0 -30 5 -55 10 -55 6 0 10 27 10 60 0 55 -2 61 -26 72 -20 9 -30 9 -45 0
-11 -7 -19 -8 -19 -2 0 5 -4 10 -10 10 -6 0 -10 -30 -10 -70z"/>
<path d="M4834 1746 c-10 -8 -16 -18 -11 -22 4 -4 13 -2 19 4 16 16 55 15 61
-2 8 -19 -1 -26 -34 -26 -29 0 -59 -22 -59 -44 0 -20 22 -36 50 -36 14 0 31 5
38 12 9 9 12 9 12 0 0 -7 5 -12 10 -12 17 0 12 107 -6 124 -19 20 -54 20 -80
2z m76 -71 c0 -8 -11 -22 -25 -31 -21 -13 -28 -14 -40 -4 -28 23 -9 38 58 49
4 0 7 -6 7 -14z"/>
<path d="M5454 1746 c-10 -8 -16 -18 -12 -22 4 -4 14 -1 22 5 19 16 61 10 61
-9 0 -9 -16 -17 -42 -23 -29 -5 -44 -14 -48 -28 -11 -33 12 -49 66 -47 l49 2
0 58 c0 46 -4 59 -19 68 -27 14 -54 13 -77 -4z m76 -70 c0 -24 -40 -47 -61
-35 -25 13 -13 37 19 42 15 2 30 5 35 6 4 0 7 -5 7 -13z"/>
<path d="M5590 1688 c0 -39 4 -68 10 -68 6 0 10 25 10 55 0 50 2 55 25 61 33
8 22 24 -15 21 l-30 -2 0 -67z"/>
<path d="M5685 1740 c-16 -18 -16 -20 -2 -20 10 0 17 5 17 11 0 18 55 6 58
-13 3 -14 -3 -18 -23 -18 -40 0 -65 -18 -65 -45 0 -27 18 -34 81 -32 l37 1 -6
61 c-3 33 -10 63 -16 67 -21 14 -63 8 -81 -12z m75 -70 c0 -23 -32 -43 -55
-34 -23 9 -14 37 15 45 38 11 40 10 40 -11z"/>
<path d="M3700 1635 c0 -8 5 -15 10 -15 6 0 10 7 10 15 0 8 -4 15 -10 15 -5 0
-10 -7 -10 -15z"/>
<path d="M2504 1605 c-55 -38 -51 -130 6 -160 42 -22 74 -18 109 11 26 22 31
33 31 70 0 59 -32 94 -87 94 -21 0 -48 -7 -59 -15z m111 -20 c67 -66 -10 -174
-93 -131 -34 17 -42 33 -42 81 0 67 87 99 135 50z"/>
<path d="M2521 1523 c1 -32 4 -46 6 -30 5 34 30 35 45 2 6 -14 16 -25 21 -25
5 0 2 11 -7 25 -15 23 -15 27 -2 41 23 23 9 44 -30 44 l-34 0 1 -57z m57 30
c-2 -10 -13 -19 -26 -21 -17 -3 -22 2 -22 17 0 16 6 21 26 21 19 0 25 -5 22
-17z"/>
<path d="M4523 1432 c-9 -5 -2 -50 25 -174 21 -92 42 -172 48 -178 6 -6 29
-10 50 -8 l39 3 24 88 c14 48 28 84 31 80 4 -5 15 -39 25 -78 10 -38 23 -76
28 -82 10 -14 83 -18 91 -5 11 18 76 337 72 349 -6 13 -43 17 -70 7 -9 -3 -21
-36 -32 -85 -9 -44 -20 -76 -24 -72 -4 4 -15 39 -25 76 -18 68 -33 87 -74 87
-31 0 -45 -21 -65 -99 -10 -40 -22 -69 -26 -64 -4 4 -13 37 -20 73 -7 36 -17
71 -23 78 -10 13 -55 16 -74 4z"/>
<path d="M5115 1426 c-17 -7 -45 -29 -62 -49 -101 -115 -41 -278 114 -311 67
-15 163 36 199 105 18 36 18 132 0 167 -19 36 -65 78 -99 91 -38 15 -115 13
-152 -3z m146 -105 c52 -52 33 -138 -36 -161 -48 -16 -101 8 -121 55 -42 100
80 183 157 106z"/>
<path d="M7745 1424 c-71 -37 -105 -91 -105 -169 0 -60 19 -103 63 -142 49
-43 106 -58 164 -43 90 22 115 58 67 93 -23 17 -28 18 -62 4 -73 -29 -142 12
-142 85 0 78 94 127 157 83 20 -14 24 -13 52 11 17 14 31 30 31 34 0 5 -20 21
-43 35 -52 30 -134 34 -182 9z"/>
<path d="M3432 1253 l3 -178 40 0 40 0 5 69 5 69 32 -71 c27 -63 35 -72 58
-72 20 0 29 8 41 35 7 19 22 52 31 73 l17 37 6 -70 5 -70 40 0 40 0 3 178 2
177 -43 0 -43 0 -50 -107 -51 -108 -51 108 -51 107 -41 0 -40 0 2 -177z"/>
<path d="M3882 1253 l3 -178 40 0 40 0 3 178 2 177 -45 0 -45 0 2 -177z"/>
<path d="M4042 1388 l3 -43 48 -3 47 -3 0 -135 0 -134 39 0 c26 0 41 5 45 16
3 9 6 69 6 134 l0 119 43 3 c42 3 42 3 45 46 l3 42 -141 0 -141 0 3 -42z"/>
<path d="M5447 1318 c-14 -232 -11 -248 49 -248 37 0 44 12 44 81 0 44 2 49
23 49 19 0 26 -10 42 -52 24 -71 31 -78 76 -78 46 0 49 12 19 79 -25 54 -25
60 1 87 44 47 32 156 -20 184 -11 5 -67 10 -124 10 l-104 0 -6 -112z m177 26
c19 -7 21 -35 4 -52 -7 -7 -29 -12 -50 -12 -37 0 -38 1 -38 35 0 33 2 35 34
35 19 0 41 -3 50 -6z"/>
<path d="M5802 1253 l3 -178 115 0 115 0 3 43 3 42 -75 0 -76 0 0 135 0 135
-45 0 -45 0 2 -177z"/>
<path d="M6122 1253 l3 -178 67 -3 c118 -5 184 26 219 102 36 80 13 176 -53
227 -29 21 -45 24 -136 27 l-102 4 2 -179z m188 67 c24 -24 34 -62 26 -95 -8
-31 -60 -65 -98 -65 l-28 0 0 90 0 90 40 0 c26 0 47 -7 60 -20z"/>
<path d="M6622 1253 l3 -178 40 0 40 0 5 60 5 60 60 5 c74 6 109 28 125 75 17
51 5 99 -31 129 -29 24 -37 26 -140 26 l-109 0 2 -177z m192 74 c15 -25 -18
-49 -64 -45 -36 3 -48 22 -36 54 8 22 85 15 100 -9z"/>
<path d="M6962 1253 l3 -178 125 0 125 0 0 40 0 40 -80 5 c-73 5 -80 7 -83 27
-3 20 1 22 60 25 l63 3 3 34 c4 42 -8 51 -75 51 -46 0 -53 3 -53 20 0 18 7 20
74 20 82 0 100 11 94 57 l-3 28 -128 3 -127 3 2 -178z"/>
<path d="M7391 1408 c-64 -173 -111 -322 -103 -330 5 -5 24 -8 42 -6 25 2 38
11 50 33 15 26 23 30 68 33 50 3 52 2 66 -32 14 -33 19 -36 55 -36 32 0 41 4
41 18 0 9 -26 90 -57 180 l-58 162 -48 0 c-40 0 -49 -3 -56 -22z m69 -123 c25
-67 24 -75 -9 -75 -17 0 -31 5 -31 11 0 16 22 89 27 89 2 0 8 -11 13 -25z"/>
<path d="M8042 1253 l3 -178 122 -3 122 -3 7 25 c13 54 5 61 -81 66 -73 5 -80
7 -83 27 -3 20 1 22 60 25 l63 3 3 34 c4 42 -8 51 -75 51 -46 0 -53 3 -53 20
0 18 7 20 74 20 82 0 100 11 94 57 l-3 28 -128 3 -127 3 2 -178z"/>
<path d="M1318 1303 c105 -2 279 -2 385 0 105 1 19 2 -193 2 -212 0 -298 -1
-192 -2z"/>
<path d="M653 1293 c48 -2 125 -2 170 0 45 1 6 3 -88 3 -93 0 -130 -2 -82 -3z"/>
<path d="M2203 1293 c48 -2 126 -2 175 0 48 1 8 3 -88 3 -96 0 -136 -2 -87 -3z"/>
<path d="M397 1283 c18 -2 50 -2 70 0 21 2 7 4 -32 4 -38 0 -55 -2 -38 -4z"/>
<path d="M666 1280 c-190 -6 -313 -13 -320 -20 -7 -7 -5 -10 7 -10 15 0 17
-11 17 -80 l0 -80 1159 0 1160 0 3 85 c2 47 0 85 -4 85 -5 0 -8 -35 -8 -78 l0
-79 -30 -1 -30 -1 0 59 c0 58 14 85 31 59 6 -10 9 -5 9 17 l0 31 -112 6 c-194
11 -1558 16 -1882 7z m-266 -47 c0 -20 3 -24 9 -14 17 26 31 -1 31 -60 0 -59
0 -59 -30 -59 l-30 0 0 80 c0 47 4 80 10 80 6 0 10 -12 10 -27z m220 17 c0 -6
-38 -10 -94 -10 -53 0 -98 4 -101 10 -4 6 30 10 94 10 61 0 101 -4 101 -10z
m40 -70 c0 -47 -4 -80 -10 -80 -6 0 -10 33 -10 80 0 47 4 80 10 80 6 0 10 -33
10 -80z m450 70 c0 -6 -68 -10 -184 -10 -113 0 -187 4 -191 10 -4 7 60 10 184
10 121 0 191 -4 191 -10z m100 -70 c0 -64 -3 -80 -15 -80 -12 0 -15 16 -15 80
0 64 3 80 15 80 12 0 15 -16 15 -80z m590 70 c0 -6 -97 -10 -270 -10 -173 0
-270 4 -270 10 0 6 97 10 270 10 173 0 270 -4 270 -10z m80 -70 c0 -64 -3 -80
-15 -80 -12 0 -15 16 -15 80 0 64 3 80 15 80 12 0 15 -16 15 -80z m445 70 c-4
-6 -78 -10 -191 -10 -116 0 -184 4 -184 10 0 6 70 10 191 10 124 0 188 -3 184
-10z m95 -71 c0 -60 -3 -80 -12 -77 -9 3 -14 31 -16 81 -2 64 0 77 13 77 12 0
15 -15 15 -81z m215 71 c-3 -6 -48 -10 -101 -10 -56 0 -94 4 -94 10 0 6 40 10
101 10 64 0 98 -4 94 -10z m-2131 -36 c3 -9 6 -38 6 -65 0 -49 -1 -50 -27 -47
-26 3 -28 6 -28 48 1 25 4 53 8 63 8 21 33 22 41 1z m116 -4 c6 -12 10 -40 8
-63 -3 -41 -4 -42 -38 -42 -34 0 -35 1 -38 42 -4 50 11 83 38 83 11 0 24 -9
30 -20z m150 0 c6 -12 10 -40 8 -63 -3 -42 -3 -42 -43 -42 l-40 0 -3 48 c-2
27 2 55 9 63 17 21 57 17 69 -6z m180 0 c6 -12 10 -40 8 -63 l-3 -42 -50 0
-50 0 -3 44 c-2 30 2 49 14 62 23 26 70 25 84 -1z m179 11 c8 -5 10 -14 6 -21
-5 -9 -4 -11 4 -6 9 6 11 -5 9 -41 l-3 -48 -47 -3 -48 -3 -2 48 -1 48 -7 -45
-7 -45 -1 40 c-2 51 20 85 56 85 15 0 33 -4 41 -9z m235 -10 c12 -13 16 -32
14 -62 l-3 -44 -57 -1 -58 -1 0 45 c0 53 21 82 60 82 15 0 35 -9 44 -19z m208
2 c12 -11 18 -30 18 -58 0 -46 -10 -55 -60 -55 -50 0 -60 9 -60 53 0 24 7 48
17 59 20 22 61 23 85 1z m210 0 c13 -11 18 -30 18 -63 l0 -47 -57 1 -58 1 -3
44 c-5 70 52 108 100 64z m232 -5 c9 -12 16 -39 16 -60 0 -42 -18 -52 -81 -46
-33 3 -34 4 -37 51 -2 36 0 47 9 41 8 -5 9 -3 4 6 -21 33 66 41 89 8z m180 3
c12 -13 16 -32 14 -62 l-3 -44 -50 0 -50 0 -3 42 c-2 23 2 51 8 63 14 26 61
27 84 1z m165 5 c7 -8 11 -36 9 -63 l-3 -48 -40 0 c-40 0 -40 0 -43 42 -2 23
2 51 8 63 12 23 52 27 69 6z m141 -6 c6 -12 10 -40 8 -63 -3 -41 -4 -42 -38
-42 -35 0 -35 0 -38 48 -2 27 2 55 9 63 17 20 47 17 59 -6z m98 -48 c3 -61 2
-62 -23 -62 -23 0 -25 3 -25 49 0 61 8 83 29 79 12 -2 17 -17 19 -66z"/>
<path d="M2553 1283 c20 -2 54 -2 75 0 20 2 3 4 -38 4 -41 0 -58 -2 -37 -4z"/>
<path d="M377 934 c-4 -4 -7 -86 -7 -181 l0 -174 43 3 42 3 3 70 3 70 31 -72
c27 -66 33 -73 58 -73 25 0 31 7 56 68 l29 67 5 -65 5 -65 43 -3 42 -3 0 181
0 181 -37 -3 c-37 -3 -39 -4 -87 -105 -27 -57 -52 -103 -56 -103 -3 0 -29 46
-56 103 -45 93 -52 102 -79 105 -17 2 -34 0 -38 -4z"/>
<path d="M810 760 l0 -180 39 0 c22 0 41 5 43 13 3 9 2 286 -2 340 0 4 -18 7
-40 7 l-40 0 0 -180z"/>
<path d="M964 926 c-3 -8 -4 -27 -2 -43 3 -26 7 -28 50 -31 l47 -3 3 -132 3
-132 43 -3 42 -3 0 135 0 135 48 3 47 3 0 40 0 40 -138 3 c-112 2 -138 0 -143
-12z"/>
<path d="M1506 932 c-2 -4 12 -84 33 -177 l37 -170 49 0 49 0 21 75 c12 41 24
82 27 90 5 16 12 -3 43 -113 l16 -58 47 3 47 3 37 169 c20 93 35 173 32 178
-3 4 -21 8 -39 8 -41 0 -48 -10 -65 -102 -14 -70 -23 -78 -34 -31 -4 16 -14
52 -22 81 l-15 52 -44 0 c-44 0 -44 -1 -55 -42 -39 -149 -41 -150 -60 -53 -19
97 -17 95 -60 95 -21 0 -41 -4 -44 -8z"/>
<path d="M2014 927 c-2 -7 -3 -87 -2 -177 l3 -165 43 -3 42 -3 0 59 0 60 60 4
c71 5 109 29 129 81 20 54 -2 116 -49 139 -44 22 -218 26 -226 5z m191 -107
c0 -23 -4 -25 -52 -28 l-53 -3 0 31 0 31 53 -3 c48 -3 52 -5 52 -28z"/>
<path d="M2367 934 c-4 -4 -7 -58 -7 -119 0 -98 3 -117 23 -156 62 -116 224
-116 284 1 21 40 23 55 21 160 l-3 115 -40 0 -40 0 -5 -117 c-6 -132 -18 -158
-75 -158 -57 0 -69 26 -75 158 l-5 117 -35 3 c-20 2 -39 0 -43 -4z"/>
<path d="M5532 881 c-54 -26 -79 -75 -62 -126 14 -42 38 -58 128 -84 39 -12
74 -26 78 -32 20 -34 -77 -44 -134 -15 -30 15 -31 15 -57 -15 -14 -18 -24 -37
-22 -43 6 -20 90 -45 150 -45 74 -1 121 20 141 64 21 43 20 63 -4 102 -16 27
-32 36 -105 58 -66 20 -85 30 -83 43 5 24 50 31 98 15 44 -15 44 -15 67 13 30
37 29 40 -9 60 -50 26 -135 28 -186 5z"/>
<path d="M3434 876 c-3 -9 -5 -67 -3 -129 4 -96 7 -117 28 -150 58 -93 193
-103 264 -18 37 45 48 95 45 208 l-3 98 -41 3 -42 3 -3 -115 c-4 -105 -6 -117
-28 -140 -29 -31 -69 -34 -102 -7 -22 18 -24 28 -29 138 l-5 118 -38 3 c-26 2
-39 -1 -43 -12z"/>
<path d="M3850 710 l0 -180 45 0 44 0 3 87 3 86 60 -87 59 -87 41 3 40 3 3
155 c4 197 3 200 -48 200 l-40 0 0 -85 c0 -47 -3 -85 -7 -85 -5 0 -34 39 -66
85 -56 82 -59 85 -98 85 l-39 0 0 -180z"/>
<path d="M4234 877 c-2 -7 -3 -87 -2 -177 l3 -165 43 -3 42 -3 0 180 0 181
-40 0 c-24 0 -43 -5 -46 -13z"/>
<path d="M4390 878 c1 -7 27 -87 58 -178 l57 -165 46 -3 45 -3 57 166 c31 91
57 172 57 181 0 12 -9 14 -42 12 l-43 -3 -37 -100 c-41 -112 -32 -115 -83 28
l-28 77 -43 0 c-29 0 -44 -4 -44 -12z"/>
<path d="M4775 877 c-3 -7 -4 -87 -3 -177 l3 -165 125 0 125 0 0 40 0 40 -83
3 c-79 3 -83 4 -80 25 3 20 10 22 66 25 l63 3 -3 37 -3 37 -62 3 c-59 3 -63 4
-63 27 0 23 3 24 83 27 l82 3 0 40 0 40 -123 3 c-94 2 -124 0 -127 -11z"/>
<path d="M5117 883 c-4 -3 -7 -84 -7 -180 l0 -173 45 0 45 0 0 65 c0 62 1 65
24 65 21 0 28 -10 48 -62 l24 -63 47 -3 c27 -2 47 1 47 7 0 6 -11 36 -25 67
l-25 57 20 22 c52 56 46 149 -13 185 -26 16 -50 20 -128 20 -53 0 -99 -3 -102
-7z m189 -98 c10 -26 -16 -45 -62 -45 -42 0 -44 1 -44 30 0 29 1 30 50 30 36
0 52 -4 56 -15z"/>
<path d="M5834 877 c-2 -7 -3 -87 -2 -177 l3 -165 43 -3 42 -3 0 180 0 181
-40 0 c-24 0 -43 -5 -46 -13z"/>
<path d="M5997 884 c-4 -4 -7 -25 -7 -46 l0 -38 50 0 50 0 0 -135 0 -135 45 0
45 0 0 134 0 135 48 3 47 3 0 40 0 40 -136 3 c-74 1 -138 -1 -142 -4z"/>
<path d="M6336 881 c-3 -4 19 -47 49 -95 l55 -87 0 -85 0 -84 45 0 45 0 0 82
0 82 55 87 c30 48 55 92 55 98 0 6 -18 11 -45 11 -41 0 -46 -3 -76 -46 -17
-25 -34 -42 -38 -37 -4 4 -19 25 -35 46 -23 32 -33 37 -66 37 -21 0 -41 -4
-44 -9z"/>
<path d="M6990 700 c0 -60 4 -100 10 -100 6 0 10 20 10 45 l0 45 45 0 c32 0
51 6 65 20 24 24 25 38 4 68 -13 19 -24 22 -75 22 l-59 0 0 -100z m114 74 c35
-34 11 -64 -51 -64 l-43 0 0 40 c0 40 0 40 39 40 23 0 46 -7 55 -16z"/>
<path d="M7181 721 c5 -95 22 -121 79 -121 57 0 74 26 79 121 2 53 0 79 -8 79
-7 0 -11 -26 -11 -73 0 -46 -5 -80 -14 -92 -15 -21 -70 -25 -89 -6 -7 7 -13
47 -16 91 -2 44 -8 80 -13 80 -6 0 -9 -31 -7 -79z"/>
<path d="M7390 700 c0 -60 4 -100 10 -100 6 0 10 36 10 88 l1 87 54 -85 c30
-47 59 -86 63 -88 9 -3 22 91 22 159 0 22 -4 39 -10 39 -6 0 -10 -33 -10 -80
0 -44 -3 -80 -8 -80 -4 0 -29 36 -56 80 -66 108 -76 106 -76 -20z"/>
<path d="M7600 700 l0 -100 70 0 c40 0 70 4 70 10 0 6 -28 10 -65 10 l-65 0 0
40 0 40 63 2 62 1 -60 6 -60 6 0 35 0 35 65 6 65 6 -72 1 -73 2 0 -100z"/>
<path d="M1297 784 c-4 -4 -7 -17 -7 -30 0 -20 6 -22 68 -26 73 -5 95 3 90 36
-3 19 -11 21 -73 24 -39 1 -74 0 -78 -4z"/>
<path d="M1373 410 c-21 -8 -23 -16 -23 -80 0 -45 4 -70 11 -70 8 0 10 22 7
66 -4 60 -2 67 17 76 14 6 34 5 63 -5 23 -8 39 -11 36 -6 -4 7 -71 30 -84 28
-3 0 -15 -4 -27 -9z"/>
<path d="M902 391 c-7 -20 -4 -136 4 -128 2 2 5 33 6 70 2 66 2 66 32 70 l31
4 -33 1 c-24 2 -35 -3 -40 -17z"/>
<path d="M986 390 c6 -8 12 -34 13 -57 2 -37 0 -43 -18 -43 -30 0 -34 17 -9
34 12 9 18 16 12 16 -6 0 -19 -6 -29 -14 -16 -12 -17 -16 -6 -30 7 -9 22 -16
32 -16 11 0 20 -6 20 -12 1 -7 5 12 9 42 6 48 5 58 -13 75 -12 11 -16 13 -11
5z"/>
<path d="M1059 368 c-1 -2 -2 -15 -3 -29 -2 -20 2 -25 15 -22 19 5 32 30 23
44 -5 8 -32 13 -35 7z m31 -18 c0 -5 -4 -10 -10 -10 -5 0 -10 5 -10 10 0 6 5
10 10 10 6 0 10 -4 10 -10z"/>
<path d="M1174 355 c-8 -19 1 -31 26 -38 16 -4 20 0 20 18 0 13 -7 26 -16 29
-22 8 -24 8 -30 -9z m36 -16 c0 -5 -7 -9 -15 -9 -15 0 -20 12 -9 23 8 8 24 -1
24 -14z"/>
<path d="M1498 363 c7 -3 16 -2 19 1 4 3 -2 6 -13 5 -11 0 -14 -3 -6 -6z"/>
<path d="M1574 359 c-3 -6 -1 -16 5 -22 6 -6 11 -21 11 -34 0 -13 5 -23 11
-23 6 0 8 -7 5 -17 -6 -16 -6 -16 12 0 25 23 35 21 29 -3 -3 -13 0 -20 9 -20
20 0 18 -17 -3 -29 -10 -6 -13 -10 -8 -11 6 0 17 4 25 10 12 7 12 12 1 34 -9
15 -12 43 -9 75 3 28 1 51 -3 51 -5 0 -9 -16 -9 -35 0 -24 -6 -37 -19 -45 -21
-10 -37 1 -27 19 3 5 -1 14 -9 21 -19 16 -19 30 1 30 9 0 12 -5 8 -12 -4 -7
-3 -8 5 -4 6 4 9 12 6 17 -8 12 -32 11 -41 -2z"/>
<path d="M1865 360 c-4 -6 -2 -17 4 -24 6 -7 9 -21 5 -30 -4 -10 0 -18 11 -22
10 -4 14 -13 10 -22 -5 -13 -3 -13 13 1 25 23 35 21 29 -3 -3 -13 0 -20 10
-20 10 0 13 -6 8 -17 -5 -14 -4 -15 6 -6 10 10 9 15 0 27 -8 9 -12 35 -9 66 1
27 0 50 -4 50 -5 0 -8 -13 -8 -30 0 -19 -7 -33 -19 -40 -21 -10 -37 1 -27 19
3 5 -1 14 -9 21 -19 16 -19 30 1 30 9 0 12 -5 8 -12 -4 -7 -3 -8 5 -4 6 4 9
12 6 17 -8 12 -32 12 -40 -1z"/>
<path d="M723 310 c0 -30 2 -43 4 -27 2 15 2 39 0 55 -2 15 -4 2 -4 -28z"/>
<path d="M783 310 c0 -30 2 -43 4 -27 2 15 2 39 0 55 -2 15 -4 2 -4 -28z"/>
<path d="M1120 340 c0 -11 -6 -20 -12 -20 -9 0 -9 -3 1 -9 8 -5 11 -16 8 -25
-3 -8 -2 -18 2 -21 5 -3 11 18 13 45 1 28 0 50 -4 50 -5 0 -8 -9 -8 -20z"/>
<path d="M1251 308 c1 -55 5 -50 11 15 2 20 0 37 -4 37 -4 0 -7 -24 -7 -52z"/>
<path d="M1301 308 c1 -55 5 -50 11 15 2 20 0 37 -4 37 -4 0 -7 -24 -7 -52z"/>
<path d="M1530 345 c0 -10 -10 -15 -29 -15 -17 0 -33 -5 -37 -11 -8 -13 15
-59 29 -59 6 0 3 8 -6 18 -25 27 -21 42 12 42 26 0 30 -4 33 -32 3 -26 5 -21
8 20 3 28 2 52 -2 52 -5 0 -8 -7 -8 -15z"/>
<path d="M1755 328 c0 -27 -4 -34 -22 -36 -28 -4 -31 22 -5 37 9 6 13 10 7 11
-41 0 -46 -53 -5 -59 14 -1 28 -8 32 -15 4 -6 8 13 8 42 0 28 -3 52 -8 52 -4
0 -7 -15 -7 -32z"/>
<path d="M2040 324 c0 -33 -2 -36 -25 -32 -13 3 -22 1 -19 -3 3 -5 14 -9 24
-9 10 0 20 -6 23 -12 2 -7 6 11 8 40 2 28 1 52 -3 52 -5 0 -8 -16 -8 -36z"/>
<path d="M2098 323 c6 -65 10 -70 11 -15 0 28 -3 52 -7 52 -4 0 -6 -17 -4 -37z"/>
<path d="M2233 310 c0 -30 2 -43 4 -27 2 15 2 39 0 55 -2 15 -4 2 -4 -28z"/>
<path d="M2303 310 c0 -30 2 -43 4 -27 2 15 2 39 0 55 -2 15 -4 2 -4 -28z"/>
<path d="M2000 330 c-8 -5 -12 -11 -10 -14 3 -2 14 2 24 10 22 15 10 19 -14 4z"/>
<path d="M3441 333 c11 -2 20 -22 26 -56 l10 -52 2 52 c1 40 5 53 19 56 9 3
-3 5 -28 5 -25 0 -38 -2 -29 -5z"/>
<path d="M3530 285 l0 -55 43 2 42 1 -37 4 c-29 3 -38 9 -38 23 0 14 9 20 33
23 l32 4 -32 1 c-25 2 -33 7 -33 21 0 15 8 21 38 24 l37 4 -42 1 -43 2 0 -55z"/>
<path d="M3629 313 c-20 -51 20 -111 59 -87 9 6 19 20 20 30 4 18 3 18 -10 0
-24 -30 -53 -17 -56 27 -4 43 17 58 50 38 16 -10 19 -10 16 1 -3 7 -19 14 -36
16 -27 3 -34 -1 -43 -25z"/>
<path d="M3743 285 c0 -33 2 -48 4 -32 4 22 9 27 33 27 24 0 29 -5 33 -27 2
-16 4 -1 5 32 0 39 -2 51 -7 35 -5 -17 -15 -26 -33 -28 -22 -3 -27 1 -31 25
-2 15 -4 1 -4 -32z"/>
<path d="M3842 283 l1 -58 6 45 6 45 23 -35 c12 -19 22 -38 22 -42 0 -5 5 -8
10 -8 6 0 9 25 8 58 -1 56 -1 57 -7 13 l-6 -44 -23 42 c-13 22 -27 41 -33 41
-5 0 -8 -26 -7 -57z"/>
<path d="M3951 312 c-23 -55 21 -108 67 -83 25 13 35 52 22 85 -8 21 -16 26
-44 26 -27 0 -36 -5 -45 -28z m77 -22 c3 -23 -2 -38 -14 -47 -27 -19 -54 1
-54 41 0 40 7 48 40 44 21 -2 26 -9 28 -38z"/>
<path d="M4060 285 l0 -55 38 1 c30 2 32 3 10 6 -26 4 -28 8 -28 54 0 27 -4
49 -10 49 -5 0 -10 -25 -10 -55z"/>
<path d="M4150 321 c-14 -28 -13 -53 6 -79 30 -43 84 -17 84 42 0 17 -5 37
-12 44 -19 19 -66 15 -78 -7z m68 -3 c30 -30 -2 -97 -37 -78 -23 12 -31 39
-20 68 9 24 38 29 57 10z"/>
<path d="M4272 328 c-17 -17 -15 -74 4 -93 10 -10 25 -14 38 -11 12 3 24 6 29
6 4 0 7 14 7 30 0 25 -4 30 -22 29 -17 -1 -19 -2 -5 -6 20 -5 22 -26 3 -42
-19 -16 -45 -3 -52 25 -12 47 21 78 58 55 16 -10 19 -10 16 1 -6 17 -60 22
-76 6z"/>
<path d="M4390 308 c11 -18 20 -44 21 -58 l1 -25 7 25 c3 14 14 40 24 58 10
17 14 32 9 32 -5 0 -14 -12 -21 -27 l-13 -27 -16 27 c-9 15 -20 27 -24 27 -4
0 1 -15 12 -32z"/>
<path d="M4561 283 c1 -40 3 -50 8 -33 5 18 14 25 31 25 17 0 26 -7 31 -25 5
-16 6 -6 5 30 l-1 55 -37 3 -38 3 1 -58z m67 25 c3 -14 -3 -18 -27 -18 -25 0
-31 4 -31 21 0 16 5 20 27 17 17 -2 29 -10 31 -20z"/>
<path d="M4670 285 l0 -55 38 2 c36 1 36 1 5 5 -24 3 -33 9 -33 23 0 14 9 20
33 23 l32 4 -32 1 c-25 2 -33 7 -33 21 0 15 8 21 33 24 31 4 31 4 -5 5 l-38 2
0 -55z"/>
<path d="M4777 334 c-17 -18 -6 -46 23 -55 17 -6 30 -17 30 -24 0 -21 -32 -27
-51 -9 -11 10 -19 12 -19 6 0 -17 38 -34 61 -27 30 10 22 57 -11 65 -30 7 -41
40 -13 40 11 0 25 -6 32 -12 11 -11 13 -10 9 2 -5 16 -49 26 -61 14z"/>
<path d="M4870 285 l0 -55 38 2 c36 1 36 1 5 5 -24 3 -33 9 -33 23 0 14 9 20
33 23 l32 4 -32 1 c-25 2 -33 7 -33 21 0 15 8 21 33 24 31 4 31 4 -5 5 l-38 2
0 -55z"/>
<path d="M4977 291 c-19 -54 -22 -75 -6 -48 5 9 19 17 29 17 10 0 24 -8 30
-17 9 -14 9 -11 4 17 -9 47 -22 80 -31 80 -5 0 -16 -22 -26 -49z m35 4 c4 -17
1 -25 -8 -25 -14 0 -19 31 -7 43 9 10 10 9 15 -18z"/>
<path d="M5060 285 c0 -30 5 -55 10 -55 6 0 10 12 10 26 0 21 4 25 23 22 14
-2 23 -11 25 -25 2 -13 7 -23 11 -23 7 0 8 53 2 103 -1 4 -19 7 -41 7 l-40 0
0 -55z m70 25 c0 -15 -7 -20 -25 -20 -18 0 -25 5 -25 20 0 15 7 20 25 20 18 0
25 -5 25 -20z"/>
<path d="M5176 324 c-3 -9 -6 -31 -6 -50 0 -27 5 -37 25 -46 21 -9 28 -8 45 7
11 10 20 23 20 29 0 6 -7 3 -15 -7 -17 -23 -58 -19 -63 6 -7 38 7 67 33 67 14
0 25 -4 25 -10 0 -5 5 -10 11 -10 8 0 8 5 -1 15 -17 20 -66 19 -74 -1z"/>
<path d="M5283 285 c0 -33 2 -48 4 -32 4 22 9 27 33 27 24 0 29 -5 33 -27 2
-16 4 -1 4 32 0 33 -2 48 -4 33 -4 -23 -9 -28 -33 -28 -24 0 -29 5 -33 28 -2
15 -4 0 -4 -33z"/>
<path d="M5474 326 c-9 -24 2 -44 28 -48 15 -2 23 -10 23 -22 0 -26 -19 -31
-39 -10 -9 9 -19 14 -22 11 -7 -7 25 -37 41 -37 18 0 47 29 42 44 -2 6 -18 17
-35 25 -18 8 -32 21 -32 28 0 17 32 17 49 1 11 -11 13 -10 9 2 -6 21 -57 26
-64 6z"/>
<path d="M5570 321 c-14 -28 -13 -53 6 -79 18 -27 45 -28 67 -4 20 22 22 73 5
90 -19 19 -66 15 -78 -7z m68 -3 c17 -17 15 -54 -4 -72 -31 -32 -77 21 -54 64
12 22 40 26 58 8z"/>
<path d="M5692 328 c-29 -29 -5 -108 33 -108 17 0 45 27 45 43 0 7 -7 4 -15
-6 -17 -23 -58 -19 -63 6 -7 38 7 67 33 67 14 0 25 -4 25 -10 0 -5 5 -10 11
-10 8 0 8 5 -1 15 -15 18 -51 20 -68 3z"/>
<path d="M5793 285 c0 -33 2 -45 4 -27 2 18 2 45 0 60 -2 15 -4 0 -4 -33z"/>
<path d="M5855 328 c-26 -73 -33 -98 -25 -98 6 0 10 7 10 15 0 21 39 19 57 -2
13 -16 14 -16 10 -2 -3 10 -11 35 -18 58 -12 41 -26 52 -34 29z m25 -45 c0 -7
-7 -13 -16 -13 -11 0 -14 5 -10 16 3 9 6 21 6 27 0 16 20 -14 20 -30z"/>
<path d="M5932 288 l-2 -58 33 1 c29 2 30 2 5 6 -25 4 -27 9 -31 56 l-3 52 -2
-57z"/>
<path d="M6063 285 c0 -33 2 -45 4 -27 2 18 2 45 0 60 -2 15 -4 0 -4 -33z"/>
<path d="M6090 286 c0 -63 19 -78 22 -16 0 22 1 45 2 52 1 6 -5 13 -11 16 -10
3 -13 -12 -13 -52z"/>
<path d="M6160 298 l-1 -43 -15 28 c-9 16 -18 26 -21 23 -8 -7 29 -68 45 -74
8 -2 12 12 12 52 0 31 -4 56 -10 56 -5 0 -10 -19 -10 -42z"/>
<path d="M6202 283 l1 -58 6 45 6 45 25 -42 c14 -24 28 -43 33 -43 4 0 6 26 5
58 l-1 57 -6 -45 -6 -45 -23 43 c-12 23 -27 42 -32 42 -6 0 -9 -26 -8 -57z"/>
<path d="M6310 314 c-6 -14 -10 -32 -10 -40 0 -18 36 -54 54 -54 24 0 46 29
46 60 0 48 -9 60 -46 60 -28 0 -36 -5 -44 -26z m74 0 c19 -49 -9 -93 -46 -73
-18 10 -26 68 -11 82 12 13 51 7 57 -9z"/>
<path d="M6423 327 c3 -9 11 -34 17 -57 6 -24 16 -40 23 -37 13 4 39 86 33
102 -2 5 -9 -11 -16 -37 -14 -54 -26 -54 -36 -3 -3 20 -11 38 -17 42 -6 4 -8
0 -4 -10z"/>
<path d="M6536 293 c-18 -53 -20 -77 -5 -50 5 9 19 17 29 17 10 0 24 -8 29
-17 15 -27 13 -3 -5 50 -9 26 -20 47 -24 47 -4 0 -15 -21 -24 -47z m34 -3 c0
-11 -4 -20 -10 -20 -5 0 -10 9 -10 20 0 11 5 20 10 20 6 0 10 -9 10 -20z"/>
<path d="M6627 333 c19 -4 23 -12 26 -56 l3 -52 2 52 c2 45 5 52 25 56 12 2 0
4 -28 4 -27 0 -40 -2 -28 -4z"/>
<path d="M6723 285 c0 -33 2 -45 4 -27 2 18 2 45 0 60 -2 15 -4 0 -4 -33z"/>
<path d="M6762 328 c-17 -17 -15 -74 4 -92 46 -47 107 22 74 85 -12 22 -59 26
-78 7z m68 -18 c23 -43 -23 -96 -54 -64 -19 18 -21 55 -4 72 18 18 46 14 58
-8z"/>
<path d="M6872 283 l1 -58 6 45 6 45 24 -42 c14 -24 28 -43 33 -43 4 0 7 26 6
58 l-1 57 -6 -45 -6 -45 -24 43 c-14 23 -28 42 -33 42 -4 0 -7 -26 -6 -57z"/>
<path d="M7030 315 c0 -14 -6 -34 -12 -45 -10 -16 -10 -23 4 -36 11 -11 23
-14 35 -9 10 5 20 8 23 7 3 0 6 10 6 23 1 17 -2 22 -13 18 -12 -5 -13 1 -8 31
6 32 5 36 -14 36 -16 0 -21 -6 -21 -25z m30 0 c0 -8 -4 -15 -10 -15 -5 0 -10
7 -10 15 0 8 5 15 10 15 6 0 10 -7 10 -15z m-2 -76 c-7 -4 -18 -3 -25 3 -10 8
-11 14 -1 25 10 13 14 12 25 -3 10 -14 10 -19 1 -25z"/>
<path d="M7161 283 c1 -40 3 -50 8 -33 5 17 15 26 33 28 53 6 46 62 -8 62
l-34 0 1 -57z m59 27 c0 -15 -7 -20 -25 -20 -18 0 -25 5 -25 20 0 15 7 20 25
20 18 0 25 -5 25 -20z"/>
<path d="M7277 308 c-8 -19 -18 -46 -21 -59 -6 -22 -6 -22 7 -6 17 21 57 23
57 2 0 -8 4 -15 9 -15 10 0 -15 88 -30 104 -4 5 -14 -7 -22 -26z m32 -30 c1
-5 -6 -8 -14 -8 -16 0 -19 9 -8 36 6 16 7 16 14 -2 4 -10 8 -22 8 -26z"/>
<path d="M7361 283 c1 -32 4 -45 6 -30 4 22 9 28 26 25 12 -2 27 -14 34 -27
10 -22 11 -19 10 30 l-2 54 -37 3 -38 3 1 -58z m64 27 c0 -9 -11 -16 -27 -18
-23 -3 -28 1 -28 18 0 17 5 21 28 18 16 -2 27 -9 27 -18z"/>
<path d="M7467 333 c19 -4 23 -12 26 -56 l3 -52 2 52 c2 45 5 52 25 56 12 2 0
4 -28 4 -27 0 -40 -2 -28 -4z"/>
<path d="M7550 286 c0 -63 19 -78 22 -16 0 22 1 45 2 52 1 6 -5 13 -11 16 -10
3 -13 -12 -13 -52z"/>
<path d="M7620 298 l-1 -43 -15 28 c-9 16 -18 26 -21 23 -8 -7 29 -68 45 -74
8 -2 12 12 12 52 0 31 -4 56 -10 56 -5 0 -10 -19 -10 -42z"/>
<path d="M7660 285 l0 -55 43 2 42 1 -38 4 c-29 3 -37 8 -35 21 2 9 16 19 33
23 l30 6 -30 4 c-42 6 -39 32 5 40 l35 6 -42 2 -43 1 0 -55z"/>
<path d="M7761 283 c1 -40 3 -50 8 -33 5 18 14 25 31 25 17 0 26 -7 31 -25 5
-16 6 -6 5 30 l-1 55 -37 3 -38 3 1 -58z m67 25 c3 -14 -3 -18 -27 -18 -25 0
-31 4 -31 21 0 16 5 20 27 17 17 -2 29 -10 31 -20z"/>
<path d="M7874 326 c-9 -24 2 -44 28 -48 15 -2 23 -10 23 -22 0 -26 -19 -31
-39 -10 -9 9 -19 14 -22 11 -7 -7 25 -37 41 -37 18 0 47 29 42 44 -2 6 -18 17
-35 25 -18 8 -32 21 -32 28 0 17 32 17 49 1 11 -11 13 -10 9 2 -6 21 -57 26
-64 6z"/>
<path d="M7973 285 c0 -33 2 -48 4 -32 4 22 9 27 33 27 24 0 29 -5 33 -27 2
-16 4 -1 5 32 0 39 -2 51 -7 35 -5 -17 -15 -26 -33 -28 -22 -3 -27 1 -31 25
-2 15 -4 1 -4 -32z"/>
<path d="M8083 285 c0 -33 2 -45 4 -27 2 18 2 45 0 60 -2 15 -4 0 -4 -33z"/>
<path d="M8121 283 c1 -32 4 -46 6 -30 4 22 9 27 34 27 27 0 30 3 27 28 -2 22
-8 28 -35 30 l-33 3 1 -58z m57 25 c3 -13 -3 -18 -22 -18 -20 0 -26 5 -26 21
0 15 5 20 22 17 13 -2 24 -11 26 -20z"/>
<path d="M8216 324 c-8 -21 8 -40 39 -48 14 -4 25 -13 25 -20 0 -23 -31 -28
-53 -9 -14 13 -19 14 -15 4 14 -44 73 -36 73 10 0 16 -7 25 -25 29 -30 7 -41
40 -13 40 11 0 25 -6 32 -12 11 -11 13 -10 9 2 -7 22 -64 25 -72 4z"/>
<path d="M1400 316 c0 -23 13 -25 33 -4 16 17 16 18 -8 18 -15 0 -25 -6 -25
-14z"/>
<path d="M1056 291 c-8 -12 21 -34 36 -28 8 4 7 6 -4 6 -21 1 -24 17 -5 24 7
3 6 6 -5 6 -9 1 -19 -3 -22 -8z"/>
<path d="M1165 290 c3 -5 16 -15 28 -22 19 -10 20 -9 10 4 -7 8 -10 18 -6 21
3 4 -4 7 -16 7 -12 0 -19 -4 -16 -10z"/>
<path d="M4481 224 c0 -11 3 -14 6 -6 3 7 2 16 -1 19 -3 4 -6 -2 -5 -13z"/>
<path d="M5391 224 c0 -11 3 -14 6 -6 3 7 2 16 -1 19 -3 4 -6 -2 -5 -13z"/>
<path d="M1597 219 c7 -7 15 -10 18 -7 3 3 -2 9 -12 12 -14 6 -15 5 -6 -5z"/>
<path d="M1887 219 c7 -7 15 -10 18 -7 3 3 -2 9 -12 12 -14 6 -15 5 -6 -5z"/>
</g>
</svg>
